<svg width="32" height="22" viewBox="0 0 32 22" fill="none" xmlns="http://www.w3.org/2000/svg">
<g id="iconfinder_Mastercard_345560">
<g id="Mastercard">
<path id="Path" fill-rule="evenodd" clip-rule="evenodd" d="M30 0.5H2C0.9 0.5 0 1.4 0 2.5V19.5C0 20.6 0.9 21.5 2 21.5H30C31.1 21.5 32 20.6 32 19.5V2.5C32 1.4 31.1 0.5 30 0.5Z" fill="#34495E"/>
</g>
<g id="Mastercard_1_">
<circle id="Oval" cx="12" cy="11" r="7" fill="#E74C3C"/>
</g>
<g id="Mastercard_2_">
<circle id="Oval_2" cx="20" cy="11" r="7" fill="#F1C40F"/>
</g>
<g id="Mastercard_3_">
<path id="Shape" fill-rule="evenodd" clip-rule="evenodd" d="M17.8 7.5H12.2C12 7.8 11.8 8.1 11.6 8.5H18.4C18.2 8.1 18 7.8 17.8 7.5ZM16.2 5.5H13.9C13.6 5.8 13.3 6.1 13 6.5H17.2C16.8 6.1 16.4 5.8 16.2 5.5ZM18.8 9.5H11.3C11.2 9.8 11.1 10.2 11.1 10.5H19C18.9 10.2 18.9 9.8 18.8 9.5ZM12.2 14.5H17.8C18 14.2 18.2 13.9 18.4 13.5H11.6C11.8 13.9 12 14.2 12.2 14.5ZM11.2 12.5H18.7C18.8 12.2 18.9 11.8 18.9 11.5H11C11.1 11.8 11.1 12.2 11.2 12.5ZM13.8 16.5H16.1C16.4 16.2 16.7 15.9 17 15.5H12.8C13.2 15.9 13.6 16.2 13.8 16.5Z" fill="#E74C3C"/>
</g>
</g>
</svg>
