<svg width="36" height="24" viewBox="0 0 36 24" fill="none" xmlns="http://www.w3.org/2000/svg">
<g id="iconfinder_JD-08_2224475">
<path id="Path" d="M32.6639 22.9327H3.33606C2.1163 22.9327 1.12744 21.9439 1.12744 20.7241V3.27594C1.12744 2.05618 2.1163 1.06732 3.33606 1.06732H32.6639C33.8836 1.06732 34.8725 2.05618 34.8725 3.27594V20.7241C34.8725 21.9439 33.8836 22.9327 32.6639 22.9327Z" fill="#F9F9F9"/>
<path id="Path_2" d="M10.4414 13.2584C10.451 13.3102 10.464 13.3613 10.5056 13.4232C11.2269 11.6013 11.948 9.7797 12.6681 7.9606C13.4004 7.9606 14.125 7.9606 14.8671 7.9606C14.8274 8.06116 14.7944 8.14965 14.7577 8.23695C13.6829 10.8026 12.6068 13.3681 11.5342 15.9348C11.4932 16.0327 11.4442 16.0699 11.3345 16.0691C10.685 16.0633 10.035 16.0645 9.3853 16.0685C9.28735 16.0693 9.24593 16.0451 9.21973 15.9431C8.67704 13.8305 8.12509 11.72 7.5874 9.60641" fill="#0052CC"/>
<path id="Path_3" d="M7.58698 9.60641C7.49044 9.22711 7.29998 8.965 6.93818 8.80389C6.34221 8.53885 5.72276 8.35414 5.08994 8.20651C5.06222 8.19988 5.03547 8.18901 5.0083 8.1802C5.0083 8.16074 5.0083 8.14172 5.0083 8.12225C5.02776 7.96288 5.12822 7.94831 5.26812 7.94896C6.37036 7.95483 7.47272 7.95233 8.57507 7.95255C9.12244 7.95255 9.49794 8.2576 9.59991 8.79562C9.88202 10.2828 10.1609 11.7707 10.4409 13.2584" fill="#FFC601"/>
<path id="Path_4" d="M22.3984 7.80472C22.6341 7.84342 22.8712 7.87375 23.1044 7.92398C23.3339 7.97355 23.5598 8.04193 23.7866 8.10477C23.8414 8.11999 23.8933 8.14478 23.9576 8.16956C23.8359 8.73683 23.7158 9.29877 23.5954 9.8607C23.3193 9.77362 23.0552 9.67458 22.7828 9.60827C22.2927 9.48923 21.7924 9.43813 21.2988 9.57098C21.1203 9.61914 20.9407 9.7197 20.801 9.84168C20.5642 10.0481 20.5639 10.3499 20.7924 10.5655C20.9481 10.7124 21.1307 10.8351 21.3155 10.9446C21.6836 11.1621 22.0702 11.3488 22.4333 11.5741C22.9215 11.8772 23.3279 12.2639 23.4906 12.8403C23.7272 13.6777 23.4688 14.794 22.5364 15.4671C21.9998 15.8543 21.3926 16.057 20.7464 16.1399C19.7297 16.2704 18.7319 16.1706 17.7603 15.8371C17.7062 15.8186 17.6542 15.7944 17.5854 15.7663C17.7111 15.1774 17.8355 14.593 17.9632 13.9953C18.0454 14.0308 18.1161 14.0592 18.1845 14.0918C18.7856 14.377 19.4195 14.5135 20.0838 14.5058C20.3886 14.5023 20.6873 14.4552 20.9623 14.3099C21.4647 14.0446 21.5311 13.5297 21.0885 13.1794C20.8721 13.0077 20.6233 12.8729 20.3768 12.7446C19.9665 12.5311 19.5608 12.3147 19.204 12.0147C18.1862 11.1598 18.3162 9.96474 18.867 9.16059C19.3202 8.4995 19.9865 8.14966 20.7438 7.95833C20.985 7.89712 21.2358 7.87462 21.4816 7.8332C21.5183 7.827 21.5536 7.81439 21.5897 7.80472C21.8592 7.80472 22.1289 7.80472 22.3984 7.80472Z" fill="#0052CC"/>
<path id="Shape" fill-rule="evenodd" clip-rule="evenodd" d="M29.058 16.0588H30.9913L29.2982 7.95462C29.1348 7.95462 28.973 7.9546 28.8123 7.95458C28.3846 7.95451 27.9651 7.95445 27.5455 7.95484C27.0987 7.95549 26.7769 8.16954 26.603 8.58483C25.5763 11.0347 24.5503 13.4847 23.5248 15.9345C23.5144 15.959 23.506 15.9843 23.4965 16.0126C23.4912 16.0286 23.4855 16.0455 23.479 16.0639C23.6129 16.0639 23.7462 16.064 23.879 16.064C24.4537 16.0643 25.0202 16.0646 25.5866 16.0593C25.6283 16.0588 25.6897 15.9984 25.7071 15.9529C25.8305 15.6298 25.9491 15.3048 26.0599 14.9774C26.0935 14.8774 26.1433 14.8479 26.246 14.8485C26.8009 14.8515 27.3557 14.8511 27.9104 14.8508C28.0919 14.8507 28.2734 14.8505 28.4549 14.8505C28.8058 14.8505 28.8059 14.8508 28.8736 15.1863L28.8746 15.1911C28.9144 15.3873 28.9563 15.583 28.9982 15.7785C29.0182 15.8719 29.0382 15.9654 29.058 16.0588ZM28.1236 11.5975C28.2339 12.1264 28.3447 12.658 28.4569 13.1954H26.7098C27.015 12.3533 27.3157 11.5231 27.6157 10.6947C27.6767 10.5263 27.7377 10.358 27.7986 10.1897L27.8309 10.194C27.9284 10.661 28.0258 11.1282 28.1236 11.5975Z" fill="#0052CC"/>
<path id="Path_5" d="M14.042 16.0659C14.6237 13.349 15.2006 10.6539 15.7774 7.96063C16.479 7.96063 17.1661 7.96063 17.8706 7.96063C17.8147 8.2285 17.7618 8.48637 17.7071 8.74369C17.1989 11.1208 16.689 13.4975 16.186 15.8759C16.1539 16.0281 16.0995 16.0727 15.9442 16.0699C15.3716 16.0593 14.7988 16.0659 14.2259 16.0659C14.1734 16.0659 14.1211 16.0659 14.042 16.0659Z" fill="#0052CC"/>
<path id="Path_6" fill-rule="evenodd" clip-rule="evenodd" d="M32.6639 22.9327H3.33606C2.1163 22.9327 1.12744 21.9439 1.12744 20.7241V3.27594C1.12744 2.05618 2.1163 1.06732 3.33606 1.06732H32.6639C33.8836 1.06732 34.8725 2.05618 34.8725 3.27594V20.7241C34.8725 21.9439 33.8836 22.9327 32.6639 22.9327Z" stroke="#303030" stroke-width="0.8" stroke-linecap="round" stroke-linejoin="round"/>
</g>
</svg>
